<?xml version="1.0" encoding="UTF-8" standalone="no"?>
<!DOCTYPE svg PUBLIC "-//W3C//DTD SVG 1.1//EN" "http://www.w3.org/Graphics/SVG/1.1/DTD/svg11.dtd">
<!-- Generated by Microsoft Visio, SVG Export map.svg Page-1 -->
<svg xmlns="http://www.w3.org/2000/svg" xmlns:xlink="http://www.w3.org/1999/xlink" xmlns:ev="http://www.w3.org/2001/xml-events"
		xmlns:v="http://schemas.microsoft.com/visio/2003/SVGExtensions/" width="8.26772in" height="11.6929in"
		viewBox="0 0 595.276 841.89" xml:space="preserve" color-interpolation-filters="sRGB" class="st5">
	<v:documentProperties v:langID="1033" v:metric="true" v:viewMarkup="false">
		<v:userDefs>
			<v:ud v:nameU="msvNoAutoConnect" v:val="VT0(1):26"/>
			<v:ud v:nameU="visV14CFF" v:prompt="" v:val="VT0(1):26"/>
			<v:ud v:nameU="visFlowchartType" v:prompt="" v:val="VT4(CrossFunctional)"/>
		</v:userDefs>
	</v:documentProperties>

	<style type="text/css">
	<![CDATA[
		.st1 {marker-end:url(#mrkr13-7);stroke:#bfbfbf;stroke-linecap:round;stroke-linejoin:round;stroke-width:0.75}
		.st2 {fill:#bfbfbf;fill-opacity:1;stroke:#bfbfbf;stroke-opacity:1;stroke-width:0.22935779816514}
		.st3 {stroke:#000000;stroke-linecap:round;stroke-linejoin:round;stroke-width:0.24}
		.st4 {fill:#000000;font-family:Calibri;font-size:0.666664em}
		.st5 {fill:none;fill-rule:evenodd;font-size:12px;overflow:visible;stroke-linecap:square;stroke-miterlimit:3}
	]]>
	</style>

	<defs id="Markers">
		<g id="lend13">
			<path d="M 3 1 L 0 0 L 3 -1 L 3 1 " style="stroke:none"/>
		</g>
		<marker id="mrkr13-7" class="st2" v:arrowType="13" v:arrowSize="2" v:setback="13.08" refX="-13.08" orient="auto"
				markerUnits="strokeWidth" overflow="visible">
			<use xlink:href="#lend13" transform="scale(-4.36,-4.36) "/>
		</marker>
	</defs>
	<g v:mID="0" v:index="1" v:groupContext="foregroundPage">
		<v:userDefs>
			<v:ud v:nameU="PEHideTags"/>
		</v:userDefs>
		<title>Page-1</title>
		<v:pageProperties v:drawingScale="0.0393701" v:pageScale="0.0393701" v:drawingUnits="24" v:shadowOffsetX="8.50394"
				v:shadowOffsetY="-8.50394"/>
		<v:layer v:name="Equipment" v:index="0"/>
		<v:layer v:name="Connector" v:index="1"/>
		<v:layer v:name="Pipelines" v:index="2"/>
		<v:layer v:name="Valve" v:index="3"/>
		<v:layer v:name="Flowchart" v:index="4"/>
		<g id="group79-1" transform="translate(99.3543,-232.441)" v:mID="79" v:groupContext="group">
			<title>Sheet.79</title>
			<g id="shape53-2" v:mID="53" v:groupContext="shape" v:layerMember="1" transform="translate(85.0394,-488.551)">
				<title>Dynamic connector</title>
				<path d="M0 841.89 L53.96 793.71" class="st1"/>
			</g>
			<g id="shape56-8" v:mID="56" v:groupContext="shape" v:layerMember="1" transform="translate(1.59872E-14,-488.551)">
				<title>Dynamic connector.56</title>
				<path d="M0 841.89 L130.44 790.76" class="st1"/>
			</g>
			<g id="shape59-13" v:mID="59" v:groupContext="shape" v:layerMember="1" transform="translate(145.984,-380.835)">
				<title>Dynamic connector.59</title>
				<path d="M7.09 841.89 L7.09 689.27" class="st1"/>
			</g>
			<g id="shape60-18" v:mID="60" v:groupContext="shape" v:layerMember="1" transform="translate(271.045,-380.835)">
				<title>Dynamic connector.60</title>
				<path d="M0 841.89 L-99.17 687.72" class="st1"/>
			</g>
			<g id="group21-23" transform="translate(153.071,-561.26)" v:mID="21" v:groupContext="group">
				<title>File</title>
				<g id="shape22-24" v:mID="22" v:groupContext="shape" transform="translate(-13.5,18)">
					<title>Sheet.22</title>
					<desc>Vision</desc>
					<v:textBlock v:margins="rect(4,4,4,4)" v:tabSpace="42.5197" v:verticalAlign="0"/>
					<v:textRect cx="13.5" cy="850.692" width="29.58" height="17.6036"/>
					<path d="M0 841.89 L27 841.89 L27 814.89 L18 805.89 L0 805.89 L0 841.89" class="st3"/>
					<path d="M27 814.89 L18 814.89 L18 805.89 L18 814.89" class="st3"/>
					<path d="M3.37 819.39 L23.62 819.39" class="st3"/>
					<path d="M3.37 821.64 L23.62 821.64" class="st3"/>
					<path d="M3.37 823.89 L23.62 823.89" class="st3"/>
					<path d="M3.37 826.14 L16.87 826.14" class="st3"/>
					<path d="M3.37 830.64 L23.62 830.64" class="st3"/>
					<path d="M3.37 832.89 L23.62 832.89" class="st3"/>
					<path d="M3.37 835.14 L23.62 835.14" class="st3"/>
					<path d="M3.37 837.39 L6.75 837.39" class="st3"/>
					<text x="3.62" y="853.09" class="st4" v:langID="1033"><v:paragraph v:horizAlign="1"/><v:tabList/>Vision</text>				</g>
			</g>
			<g id="shape57-37" v:mID="57" v:groupContext="shape" v:layerMember="1" transform="translate(146.321,-380.835)">
				<title>Dynamic connector.57</title>
				<path d="M0 841.89 L-54.91 777.63" class="st1"/>
			</g>
			<g id="shape58-42" v:mID="58" v:groupContext="shape" v:layerMember="1" transform="translate(139.571,-380.835)">
				<title>Dynamic connector.58</title>
				<path d="M0 841.89 L-130.85 774.66" class="st1"/>
			</g>
			<g id="shape61-47" v:mID="61" v:groupContext="shape" v:layerMember="1" transform="translate(264.295,-355.748)">
				<title>Dynamic connector.61</title>
				<path d="M0 834.8 L-87.91 834.8" class="st1"/>
			</g>
			<g id="shape62-52" v:mID="62" v:groupContext="shape" v:layerMember="1" transform="translate(145.984,-256.11)">
				<title>Dynamic connector.62</title>
				<path d="M7.09 841.89 L7.09 762.98" class="st1"/>
			</g>
			<g id="shape63-57" v:mID="63" v:groupContext="shape" v:layerMember="1" transform="translate(271.045,-256.11)">
				<title>Dynamic connector.63</title>
				<path d="M0 841.89 L-103.56 759.28" class="st1"/>
			</g>
			<g id="shape64-62" v:mID="64" v:groupContext="shape" v:layerMember="1" transform="translate(264.295,-231.024)">
				<title>Dynamic connector.64</title>
				<path d="M0 834.8 L-87.91 834.8" class="st1"/>
			</g>
			<g id="shape65-67" v:mID="65" v:groupContext="shape" v:layerMember="1" transform="translate(270.709,-256.11)">
				<title>Dynamic connector.65</title>
				<path d="M7.09 841.89 L7.09 762.98" class="st1"/>
			</g>
			<g id="shape66-72" v:mID="66" v:groupContext="shape" v:layerMember="1" transform="translate(166.571,-256.11)">
				<title>Dynamic connector.66</title>
				<path d="M0 841.89 L90.46 759.76" class="st1"/>
			</g>
			<g id="shape67-77" v:mID="67" v:groupContext="shape" v:layerMember="1" transform="translate(21.2598,-137.055)">
				<title>Dynamic connector.67</title>
				<path d="M7.09 841.89 L7.09 768.64" class="st1"/>
			</g>
			<g id="shape68-82" v:mID="68" v:groupContext="shape" v:layerMember="1" transform="translate(35.4331,-18)">
				<title>Dynamic connector.68</title>
				<path d="M-7.09 841.89 L-7.09 768.64" class="st1"/>
			</g>
			<g id="shape69-87" v:mID="69" v:groupContext="shape" v:layerMember="1" transform="translate(264.295,-452.551)">
				<title>Dynamic connector.69</title>
				<path d="M0 841.89 L-89.82 907.8" class="st1"/>
			</g>
			<g id="shape70-92" v:mID="70" v:groupContext="shape" v:layerMember="1" transform="translate(270.709,-452.551)">
				<title>Dynamic connector.70</title>
				<path d="M7.09 841.89 L7.09 903.8" class="st1"/>
			</g>
			<g id="shape71-97" v:mID="71" v:groupContext="shape" v:layerMember="1" transform="translate(383.35,-463.465)">
				<title>Dynamic connector.71</title>
				<path d="M0 834.8 L-82.25 834.8" class="st1"/>
			</g>
			<g id="shape72-102" v:mID="72" v:groupContext="shape" v:layerMember="1" transform="translate(41.8465,-256.11)">
				<title>Dynamic connector.72</title>
				<path d="M0 841.89 L90.46 759.76" class="st1"/>
			</g>
			<g id="shape73-107" v:mID="73" v:groupContext="shape" v:layerMember="1" transform="translate(208.683,-137.055)">
				<title>Dynamic connector.73</title>
				<path d="M0 841.89 L-50.15 766.99" class="st1"/>
			</g>
			<g id="shape74-112" v:mID="74" v:groupContext="shape" v:layerMember="1" transform="translate(222.183,-137.055)">
				<title>Dynamic connector.74</title>
				<path d="M0 841.89 L50.15 766.99" class="st1"/>
			</g>
			<g id="shape75-117" v:mID="75" v:groupContext="shape" v:layerMember="1" transform="translate(41.8465,-111.969)">
				<title>Dynamic connector.75</title>
				<path d="M0 834.8 L150.28 834.8" class="st1"/>
			</g>
			<g id="shape76-122" v:mID="76" v:groupContext="shape" v:layerMember="1" transform="translate(139.571,-355.748)">
				<title>Dynamic connector.76</title>
				<path d="M0 834.8 L-116.26 834.8" class="st1"/>
			</g>
			<g id="shape77-127" v:mID="77" v:groupContext="shape" v:layerMember="1" transform="translate(291.295,-231.024)">
				<title>Dynamic connector.77</title>
				<path d="M0 834.8 L87.91 834.8" class="st1"/>
			</g>
			<g id="shape78-132" v:mID="78" v:groupContext="shape" v:layerMember="1" transform="translate(395.433,-137.055)">
				<title>Dynamic connector.78</title>
				<path d="M7.09 841.89 L7.09 768.64" class="st1"/>
			</g>
			<g id="group23-137" transform="translate(85.0394,-470.551)" v:mID="23" v:groupContext="group">
				<title>File.23</title>
				<g id="shape24-138" v:mID="24" v:groupContext="shape" transform="translate(-13.5,18)">
					<title>Sheet.24</title>
					<desc>Glossary</desc>
					<v:textBlock v:margins="rect(4,4,4,4)" v:tabSpace="42.5197" v:verticalAlign="0"/>
					<v:textRect cx="13.5" cy="850.692" width="37.42" height="17.6036"/>
					<path d="M0 841.89 L27 841.89 L27 814.89 L18 805.89 L0 805.89 L0 841.89" class="st3"/>
					<path d="M27 814.89 L18 814.89 L18 805.89 L18 814.89" class="st3"/>
					<path d="M3.37 819.39 L23.62 819.39" class="st3"/>
					<path d="M3.37 821.64 L23.62 821.64" class="st3"/>
					<path d="M3.37 823.89 L23.62 823.89" class="st3"/>
					<path d="M3.37 826.14 L16.87 826.14" class="st3"/>
					<path d="M3.37 830.64 L23.62 830.64" class="st3"/>
					<path d="M3.37 832.89 L23.62 832.89" class="st3"/>
					<path d="M3.37 835.14 L23.62 835.14" class="st3"/>
					<path d="M3.37 837.39 L6.75 837.39" class="st3"/>
					<text x="-0.3" y="853.09" class="st4" v:langID="1033"><v:paragraph v:horizAlign="1"/><v:tabList/>Glossary</text>				</g>
			</g>
			<g id="group25-151" transform="translate(0,-470.551)" v:mID="25" v:groupContext="group">
				<title>File.25</title>
				<g id="shape26-152" v:mID="26" v:groupContext="shape" transform="translate(-13.5,18)">
					<title>Sheet.26</title>
					<desc>Stakeholder Requests</desc>
					<v:textBlock v:margins="rect(4,4,4,4)" v:tabSpace="42.5197" v:verticalAlign="0"/>
					<v:textRect cx="13.5" cy="850.692" width="80.31" height="17.6036"/>
					<path d="M0 841.89 L27 841.89 L27 814.89 L18 805.89 L0 805.89 L0 841.89" class="st3"/>
					<path d="M27 814.89 L18 814.89 L18 805.89 L18 814.89" class="st3"/>
					<path d="M3.37 819.39 L23.62 819.39" class="st3"/>
					<path d="M3.37 821.64 L23.62 821.64" class="st3"/>
					<path d="M3.37 823.89 L23.62 823.89" class="st3"/>
					<path d="M3.37 826.14 L16.87 826.14" class="st3"/>
					<path d="M3.37 830.64 L23.62 830.64" class="st3"/>
					<path d="M3.37 832.89 L23.62 832.89" class="st3"/>
					<path d="M3.37 835.14 L23.62 835.14" class="st3"/>
					<path d="M3.37 837.39 L6.75 837.39" class="st3"/>
					<text x="-21.75" y="853.09" class="st4" v:langID="1033"><v:paragraph v:horizAlign="1"/><v:tabList/>Stakeholder Requests</text>				</g>
			</g>
			<g id="group27-165" transform="translate(153.071,-362.835)" v:mID="27" v:groupContext="group">
				<title>File.27</title>
				<g id="shape28-166" v:mID="28" v:groupContext="shape" transform="translate(-13.5,18)">
					<title>Sheet.28</title>
					<desc>Use Case Spec</desc>
					<v:textBlock v:margins="rect(4,4,4,4)" v:tabSpace="42.5197" v:verticalAlign="0"/>
					<v:textRect cx="13.5" cy="850.692" width="56.13" height="17.6036"/>
					<path d="M0 841.89 L27 841.89 L27 814.89 L18 805.89 L0 805.89 L0 841.89" class="st3"/>
					<path d="M27 814.89 L18 814.89 L18 805.89 L18 814.89" class="st3"/>
					<path d="M3.37 819.39 L23.62 819.39" class="st3"/>
					<path d="M3.37 821.64 L23.62 821.64" class="st3"/>
					<path d="M3.37 823.89 L23.62 823.89" class="st3"/>
					<path d="M3.37 826.14 L16.87 826.14" class="st3"/>
					<path d="M3.37 830.64 L23.62 830.64" class="st3"/>
					<path d="M3.37 832.89 L23.62 832.89" class="st3"/>
					<path d="M3.37 835.14 L23.62 835.14" class="st3"/>
					<path d="M3.37 837.39 L6.75 837.39" class="st3"/>
					<text x="-9.65" y="853.09" class="st4" v:langID="1033"><v:paragraph v:horizAlign="1"/><v:tabList/>Use Case Spec</text>				</g>
			</g>
			<g id="group29-179" transform="translate(277.795,-362.835)" v:mID="29" v:groupContext="group">
				<title>File.29</title>
				<g id="shape30-180" v:mID="30" v:groupContext="shape" transform="translate(-13.5,18)">
					<title>Sheet.30</title>
					<desc>Supplementary Spec</desc>
					<v:textBlock v:margins="rect(4,4,4,4)" v:tabSpace="42.5197" v:verticalAlign="0"/>
					<v:textRect cx="13.5" cy="850.692" width="76.46" height="17.6036"/>
					<path d="M0 841.89 L27 841.89 L27 814.89 L18 805.89 L0 805.89 L0 841.89" class="st3"/>
					<path d="M27 814.89 L18 814.89 L18 805.89 L18 814.89" class="st3"/>
					<path d="M3.37 819.39 L23.62 819.39" class="st3"/>
					<path d="M3.37 821.64 L23.62 821.64" class="st3"/>
					<path d="M3.37 823.89 L23.62 823.89" class="st3"/>
					<path d="M3.37 826.14 L16.87 826.14" class="st3"/>
					<path d="M3.37 830.64 L23.62 830.64" class="st3"/>
					<path d="M3.37 832.89 L23.62 832.89" class="st3"/>
					<path d="M3.37 835.14 L23.62 835.14" class="st3"/>
					<path d="M3.37 837.39 L6.75 837.39" class="st3"/>
					<text x="-19.82" y="853.09" class="st4" v:langID="1033"><v:paragraph v:horizAlign="1"/><v:tabList/>Supplementary Spec</text>				</g>
			</g>
			<g id="group43-193" transform="translate(277.795,-470.551)" v:mID="43" v:groupContext="group">
				<title>File.43</title>
				<g id="shape44-194" v:mID="44" v:groupContext="shape" transform="translate(-13.5,18)">
					<title>Sheet.44</title>
					<desc>Risk List</desc>
					<v:textBlock v:margins="rect(4,4,4,4)" v:tabSpace="42.5197" v:verticalAlign="0"/>
					<v:textRect cx="13.5" cy="850.692" width="35.58" height="17.6036"/>
					<path d="M0 841.89 L27 841.89 L27 814.89 L18 805.89 L0 805.89 L0 841.89" class="st3"/>
					<path d="M27 814.89 L18 814.89 L18 805.89 L18 814.89" class="st3"/>
					<path d="M3.37 819.39 L23.62 819.39" class="st3"/>
					<path d="M3.37 821.64 L23.62 821.64" class="st3"/>
					<path d="M3.37 823.89 L23.62 823.89" class="st3"/>
					<path d="M3.37 826.14 L16.87 826.14" class="st3"/>
					<path d="M3.37 830.64 L23.62 830.64" class="st3"/>
					<path d="M3.37 832.89 L23.62 832.89" class="st3"/>
					<path d="M3.37 835.14 L23.62 835.14" class="st3"/>
					<path d="M3.37 837.39 L6.75 837.39" class="st3"/>
					<text x="0.62" y="853.09" class="st4" v:langID="1033"><v:paragraph v:horizAlign="1"/><v:tabList/>Risk List</text>				</g>
			</g>
			<g id="group45-207" transform="translate(396.85,-470.551)" v:mID="45" v:groupContext="group">
				<title>File.45</title>
				<g id="shape46-208" v:mID="46" v:groupContext="shape" transform="translate(-13.5,18)">
					<title>Sheet.46</title>
					<desc>Risk Management Plan</desc>
					<v:textBlock v:margins="rect(4,4,4,4)" v:tabSpace="42.5197" v:verticalAlign="0"/>
					<v:textRect cx="13.5" cy="850.692" width="84.09" height="17.6036"/>
					<path d="M0 841.89 L27 841.89 L27 814.89 L18 805.89 L0 805.89 L0 841.89" class="st3"/>
					<path d="M27 814.89 L18 814.89 L18 805.89 L18 814.89" class="st3"/>
					<path d="M3.37 819.39 L23.62 819.39" class="st3"/>
					<path d="M3.37 821.64 L23.62 821.64" class="st3"/>
					<path d="M3.37 823.89 L23.62 823.89" class="st3"/>
					<path d="M3.37 826.14 L16.87 826.14" class="st3"/>
					<path d="M3.37 830.64 L23.62 830.64" class="st3"/>
					<path d="M3.37 832.89 L23.62 832.89" class="st3"/>
					<path d="M3.37 835.14 L23.62 835.14" class="st3"/>
					<path d="M3.37 837.39 L6.75 837.39" class="st3"/>
					<text x="-23.64" y="853.09" class="st4" v:langID="1033"><v:paragraph v:horizAlign="1"/><v:tabList/>Risk Management Plan</text>				</g>
			</g>
			<g id="group51-221" transform="translate(0,-362.835)" v:mID="51" v:groupContext="group">
				<title>File.51</title>
				<g id="shape52-222" v:mID="52" v:groupContext="shape" transform="translate(-13.5,18)">
					<title>Sheet.52</title>
					<desc>Use Case Modelling Guideline</desc>
					<v:textBlock v:margins="rect(4,4,4,4)" v:tabSpace="42.5197" v:verticalAlign="0"/>
					<v:textRect cx="13.5" cy="850.692" width="106.53" height="17.6036"/>
					<path d="M0 841.89 L27 841.89 L27 814.89 L18 805.89 L0 805.89 L0 841.89" class="st3"/>
					<path d="M27 814.89 L18 814.89 L18 805.89 L18 814.89" class="st3"/>
					<path d="M3.37 819.39 L23.62 819.39" class="st3"/>
					<path d="M3.37 821.64 L23.62 821.64" class="st3"/>
					<path d="M3.37 823.89 L23.62 823.89" class="st3"/>
					<path d="M3.37 826.14 L16.87 826.14" class="st3"/>
					<path d="M3.37 830.64 L23.62 830.64" class="st3"/>
					<path d="M3.37 832.89 L23.62 832.89" class="st3"/>
					<path d="M3.37 835.14 L23.62 835.14" class="st3"/>
					<path d="M3.37 837.39 L6.75 837.39" class="st3"/>
					<text x="-34.86" y="853.09" class="st4" v:langID="1033"><v:paragraph v:horizAlign="1"/><v:tabList/>Use Case Modelling Guideline</text>				</g>
			</g>
			<g id="group31-235" transform="translate(153.071,-238.11)" v:mID="31" v:groupContext="group">
				<title>File.31</title>
				<g id="shape32-236" v:mID="32" v:groupContext="shape" transform="translate(-13.5,18)">
					<title>Sheet.32</title>
					<desc>Software Architecture Document</desc>
					<v:textBlock v:margins="rect(4,4,4,4)" v:tabSpace="42.5197" v:verticalAlign="0"/>
					<v:textRect cx="13.5" cy="850.692" width="117.28" height="17.6036"/>
					<path d="M0 841.89 L27 841.89 L27 814.89 L18 805.89 L0 805.89 L0 841.89" class="st3"/>
					<path d="M27 814.89 L18 814.89 L18 805.89 L18 814.89" class="st3"/>
					<path d="M3.37 819.39 L23.62 819.39" class="st3"/>
					<path d="M3.37 821.64 L23.62 821.64" class="st3"/>
					<path d="M3.37 823.89 L23.62 823.89" class="st3"/>
					<path d="M3.37 826.14 L16.87 826.14" class="st3"/>
					<path d="M3.37 830.64 L23.62 830.64" class="st3"/>
					<path d="M3.37 832.89 L23.62 832.89" class="st3"/>
					<path d="M3.37 835.14 L23.62 835.14" class="st3"/>
					<path d="M3.37 837.39 L6.75 837.39" class="st3"/>
					<text x="-40.23" y="853.09" class="st4" v:langID="1033"><v:paragraph v:horizAlign="1"/><v:tabList/>Software Architecture Document</text>				</g>
			</g>
			<g id="group33-249" transform="translate(277.795,-238.11)" v:mID="33" v:groupContext="group">
				<title>File.33</title>
				<g id="shape34-250" v:mID="34" v:groupContext="shape" transform="translate(-13.5,18)">
					<title>Sheet.34</title>
					<desc>Use Case Realization Spec</desc>
					<v:textBlock v:margins="rect(4,4,4,4)" v:tabSpace="42.5197" v:verticalAlign="0"/>
					<v:textRect cx="13.5" cy="850.692" width="93.69" height="17.6036"/>
					<path d="M0 841.89 L27 841.89 L27 814.89 L18 805.89 L0 805.89 L0 841.89" class="st3"/>
					<path d="M27 814.89 L18 814.89 L18 805.89 L18 814.89" class="st3"/>
					<path d="M3.37 819.39 L23.62 819.39" class="st3"/>
					<path d="M3.37 821.64 L23.62 821.64" class="st3"/>
					<path d="M3.37 823.89 L23.62 823.89" class="st3"/>
					<path d="M3.37 826.14 L16.87 826.14" class="st3"/>
					<path d="M3.37 830.64 L23.62 830.64" class="st3"/>
					<path d="M3.37 832.89 L23.62 832.89" class="st3"/>
					<path d="M3.37 835.14 L23.62 835.14" class="st3"/>
					<path d="M3.37 837.39 L6.75 837.39" class="st3"/>
					<text x="-28.44" y="853.09" class="st4" v:langID="1033"><v:paragraph v:horizAlign="1"/><v:tabList/>Use Case Realization Spec</text>				</g>
			</g>
			<g id="group37-263" transform="translate(28.3465,-238.11)" v:mID="37" v:groupContext="group">
				<title>File.37</title>
				<g id="shape38-264" v:mID="38" v:groupContext="shape" transform="translate(-13.5,18)">
					<title>Sheet.38</title>
					<desc>Product Acceptance Plan</desc>
					<v:textBlock v:margins="rect(4,4,4,4)" v:tabSpace="42.5197" v:verticalAlign="0"/>
					<v:textRect cx="13.5" cy="850.692" width="90.7" height="17.6036"/>
					<path d="M0 841.89 L27 841.89 L27 814.89 L18 805.89 L0 805.89 L0 841.89" class="st3"/>
					<path d="M27 814.89 L18 814.89 L18 805.89 L18 814.89" class="st3"/>
					<path d="M3.37 819.39 L23.62 819.39" class="st3"/>
					<path d="M3.37 821.64 L23.62 821.64" class="st3"/>
					<path d="M3.37 823.89 L23.62 823.89" class="st3"/>
					<path d="M3.37 826.14 L16.87 826.14" class="st3"/>
					<path d="M3.37 830.64 L23.62 830.64" class="st3"/>
					<path d="M3.37 832.89 L23.62 832.89" class="st3"/>
					<path d="M3.37 835.14 L23.62 835.14" class="st3"/>
					<path d="M3.37 837.39 L6.75 837.39" class="st3"/>
					<text x="-26.94" y="853.09" class="st4" v:langID="1033"><v:paragraph v:horizAlign="1"/><v:tabList/>Product Acceptance Plan</text>				</g>
			</g>
			<g id="group47-277" transform="translate(402.52,-238.11)" v:mID="47" v:groupContext="group">
				<title>File.47</title>
				<g id="shape48-278" v:mID="48" v:groupContext="shape" transform="translate(-13.5,18)">
					<title>Sheet.48</title>
					<desc>Design Guideline</desc>
					<v:textBlock v:margins="rect(4,4,4,4)" v:tabSpace="42.5197" v:verticalAlign="0"/>
					<v:textRect cx="13.5" cy="850.692" width="64.59" height="17.6036"/>
					<path d="M0 841.89 L27 841.89 L27 814.89 L18 805.89 L0 805.89 L0 841.89" class="st3"/>
					<path d="M27 814.89 L18 814.89 L18 805.89 L18 814.89" class="st3"/>
					<path d="M3.37 819.39 L23.62 819.39" class="st3"/>
					<path d="M3.37 821.64 L23.62 821.64" class="st3"/>
					<path d="M3.37 823.89 L23.62 823.89" class="st3"/>
					<path d="M3.37 826.14 L16.87 826.14" class="st3"/>
					<path d="M3.37 830.64 L23.62 830.64" class="st3"/>
					<path d="M3.37 832.89 L23.62 832.89" class="st3"/>
					<path d="M3.37 835.14 L23.62 835.14" class="st3"/>
					<path d="M3.37 837.39 L6.75 837.39" class="st3"/>
					<text x="-13.88" y="853.09" class="st4" v:langID="1033"><v:paragraph v:horizAlign="1"/><v:tabList/>Design Guideline</text>				</g>
			</g>
			<g id="group35-291" transform="translate(28.3465,0)" v:mID="35" v:groupContext="group">
				<title>File.35</title>
				<g id="shape36-292" v:mID="36" v:groupContext="shape" transform="translate(-13.5,18)">
					<title>Sheet.36</title>
					<desc>Release Notes</desc>
					<v:textBlock v:margins="rect(4,4,4,4)" v:tabSpace="42.5197" v:verticalAlign="0"/>
					<v:textRect cx="13.5" cy="850.692" width="55.88" height="17.6036"/>
					<path d="M0 841.89 L27 841.89 L27 814.89 L18 805.89 L0 805.89 L0 841.89" class="st3"/>
					<path d="M27 814.89 L18 814.89 L18 805.89 L18 814.89" class="st3"/>
					<path d="M3.37 819.39 L23.62 819.39" class="st3"/>
					<path d="M3.37 821.64 L23.62 821.64" class="st3"/>
					<path d="M3.37 823.89 L23.62 823.89" class="st3"/>
					<path d="M3.37 826.14 L16.87 826.14" class="st3"/>
					<path d="M3.37 830.64 L23.62 830.64" class="st3"/>
					<path d="M3.37 832.89 L23.62 832.89" class="st3"/>
					<path d="M3.37 835.14 L23.62 835.14" class="st3"/>
					<path d="M3.37 837.39 L6.75 837.39" class="st3"/>
					<text x="-9.53" y="853.09" class="st4" v:langID="1033"><v:paragraph v:horizAlign="1"/><v:tabList/>Release Notes</text>				</g>
			</g>
			<g id="group39-305" transform="translate(215.433,-119.055)" v:mID="39" v:groupContext="group">
				<title>File.39</title>
				<g id="shape40-306" v:mID="40" v:groupContext="shape" transform="translate(-13.5,18)">
					<title>Sheet.40</title>
					<desc>Measurement Plan</desc>
					<v:textBlock v:margins="rect(4,4,4,4)" v:tabSpace="42.5197" v:verticalAlign="0"/>
					<v:textRect cx="13.5" cy="850.692" width="71.64" height="17.6036"/>
					<path d="M0 841.89 L27 841.89 L27 814.89 L18 805.89 L0 805.89 L0 841.89" class="st3"/>
					<path d="M27 814.89 L18 814.89 L18 805.89 L18 814.89" class="st3"/>
					<path d="M3.37 819.39 L23.62 819.39" class="st3"/>
					<path d="M3.37 821.64 L23.62 821.64" class="st3"/>
					<path d="M3.37 823.89 L23.62 823.89" class="st3"/>
					<path d="M3.37 826.14 L16.87 826.14" class="st3"/>
					<path d="M3.37 830.64 L23.62 830.64" class="st3"/>
					<path d="M3.37 832.89 L23.62 832.89" class="st3"/>
					<path d="M3.37 835.14 L23.62 835.14" class="st3"/>
					<path d="M3.37 837.39 L6.75 837.39" class="st3"/>
					<text x="-17.41" y="853.09" class="st4" v:langID="1033"><v:paragraph v:horizAlign="1"/><v:tabList/>Measurement Plan</text>				</g>
			</g>
			<g id="group41-319" transform="translate(28.3465,-119.055)" v:mID="41" v:groupContext="group">
				<title>File.41</title>
				<g id="shape42-320" v:mID="42" v:groupContext="shape" transform="translate(-13.5,18)">
					<title>Sheet.42</title>
					<desc>Deployment Plan</desc>
					<v:textBlock v:margins="rect(4,4,4,4)" v:tabSpace="42.5197" v:verticalAlign="0"/>
					<v:textRect cx="13.5" cy="850.692" width="65.66" height="17.6036"/>
					<path d="M0 841.89 L27 841.89 L27 814.89 L18 805.89 L0 805.89 L0 841.89" class="st3"/>
					<path d="M27 814.89 L18 814.89 L18 805.89 L18 814.89" class="st3"/>
					<path d="M3.37 819.39 L23.62 819.39" class="st3"/>
					<path d="M3.37 821.64 L23.62 821.64" class="st3"/>
					<path d="M3.37 823.89 L23.62 823.89" class="st3"/>
					<path d="M3.37 826.14 L16.87 826.14" class="st3"/>
					<path d="M3.37 830.64 L23.62 830.64" class="st3"/>
					<path d="M3.37 832.89 L23.62 832.89" class="st3"/>
					<path d="M3.37 835.14 L23.62 835.14" class="st3"/>
					<path d="M3.37 837.39 L6.75 837.39" class="st3"/>
					<text x="-14.42" y="853.09" class="st4" v:langID="1033"><v:paragraph v:horizAlign="1"/><v:tabList/>Deployment Plan</text>				</g>
			</g>
			<g id="group49-333" transform="translate(402.52,-119.055)" v:mID="49" v:groupContext="group">
				<title>File.49</title>
				<g id="shape50-334" v:mID="50" v:groupContext="shape" transform="translate(-13.5,18)">
					<title>Sheet.50</title>
					<desc>Programming Guideline</desc>
					<v:textBlock v:margins="rect(4,4,4,4)" v:tabSpace="42.5197" v:verticalAlign="0"/>
					<v:textRect cx="13.5" cy="850.692" width="86.86" height="17.6036"/>
					<path d="M0 841.89 L27 841.89 L27 814.89 L18 805.89 L0 805.89 L0 841.89" class="st3"/>
					<path d="M27 814.89 L18 814.89 L18 805.89 L18 814.89" class="st3"/>
					<path d="M3.37 819.39 L23.62 819.39" class="st3"/>
					<path d="M3.37 821.64 L23.62 821.64" class="st3"/>
					<path d="M3.37 823.89 L23.62 823.89" class="st3"/>
					<path d="M3.37 826.14 L16.87 826.14" class="st3"/>
					<path d="M3.37 830.64 L23.62 830.64" class="st3"/>
					<path d="M3.37 832.89 L23.62 832.89" class="st3"/>
					<path d="M3.37 835.14 L23.62 835.14" class="st3"/>
					<path d="M3.37 837.39 L6.75 837.39" class="st3"/>
					<text x="-25.02" y="853.09" class="st4" v:langID="1033"><v:paragraph v:horizAlign="1"/><v:tabList/>Programming Guideline</text>				</g>
			</g>
		</g>
	</g>
</svg>
